<?xml version="1.0" encoding="utf-8"?>
<!-- Generator: Adobe Illustrator 25.2.1, SVG Export Plug-In . SVG Version: 6.00 Build 0)  -->
<!DOCTYPE svg PUBLIC "-//W3C//DTD SVG 1.1//EN" "http://www.w3.org/Graphics/SVG/1.1/DTD/svg11.dtd" [
	<!ENTITY ns_extend "http://ns.adobe.com/Extensibility/1.0/">
	<!ENTITY ns_ai "http://ns.adobe.com/AdobeIllustrator/10.0/">
	<!ENTITY ns_graphs "http://ns.adobe.com/Graphs/1.0/">
	<!ENTITY ns_vars "http://ns.adobe.com/Variables/1.0/">
	<!ENTITY ns_imrep "http://ns.adobe.com/ImageReplacement/1.0/">
	<!ENTITY ns_sfw "http://ns.adobe.com/SaveForWeb/1.0/">
	<!ENTITY ns_custom "http://ns.adobe.com/GenericCustomNamespace/1.0/">
	<!ENTITY ns_adobe_xpath "http://ns.adobe.com/XPath/1.0/">
]>
<svg version="1.1" id="Layer_1" xmlns:x="&ns_extend;" xmlns:i="&ns_ai;" xmlns:graph="&ns_graphs;"
	 xmlns="http://www.w3.org/2000/svg" xmlns:xlink="http://www.w3.org/1999/xlink" x="0px" y="0px" viewBox="0 0 180 35"
	 style="enable-background:new 0 0 180 35;" xml:space="preserve">
<style type="text/css">
	.Drop_x0020_Shadow{fill:none;}
	.Round_x0020_Corners_x0020_2_x0020_pt{fill:#FFFFFF;stroke:#231F20;stroke-miterlimit:10;}
	.Live_x0020_Reflect_x0020_X{fill:none;}
	.Bevel_x0020_Soft{fill:url(#SVGID_1_);}
	.Dusk{fill:#FFFFFF;}
	.Foliage_GS{fill:#FFDD00;}
	.Pompadour_GS{fill-rule:evenodd;clip-rule:evenodd;fill:#44ADE2;}
	.st0{fill-rule:evenodd;clip-rule:evenodd;fill:#1A1A18;}
	.st1{fill:none;stroke:#1A1A18;stroke-width:0.5669;stroke-miterlimit:22.9256;}
</style>
<metadata>
	<sfw  xmlns="&ns_sfw;">
		<slices></slices>
		<sliceSourceBounds  bottomLeftOrigin="true" height="34.6" width="175.1" x="2.9" y="-34.9"></sliceSourceBounds>
	</sfw>
</metadata>
<linearGradient id="SVGID_1_" gradientUnits="userSpaceOnUse" x1="0" y1="0" x2="0.7071" y2="0.7071">
	<stop  offset="0" style="stop-color:#DEDFE3"/>
	<stop  offset="0.1783" style="stop-color:#DADBDF"/>
	<stop  offset="0.3611" style="stop-color:#CECFD3"/>
	<stop  offset="0.546" style="stop-color:#B9BCBF"/>
	<stop  offset="0.7324" style="stop-color:#9CA0A2"/>
	<stop  offset="0.9181" style="stop-color:#787D7E"/>
	<stop  offset="1" style="stop-color:#656B6C"/>
</linearGradient>
<path class="st0" d="M14.2,29.9c7.5,1,9-6,8-11.3c-0.4-2.2-2.2-5.9-6.4-6C7,12.3,6.6,28.8,14.2,29.9z M22.3,0.6h5.8v33.5h-5.8v-3.5
	c-2.4,4.4-8.7,4.5-11.4,3.5c-1.9-0.7-4.2-2.1-5.8-4.9c-1.8-3.1-2.1-6.8-1.9-7.4c0-0.2-0.6-7.6,4.9-11.6c0.2-0.2,2.5-2,5.5-2
	c0,0,5.7-0.7,8.8,4V0.6z"/>
<path class="st1" d="M14.2,29.9c7.5,1,9-6,8-11.3c-0.4-2.2-2.2-5.9-6.4-6C7,12.3,6.6,28.8,14.2,29.9z M22.3,0.6h5.8v33.5h-5.8v-3.5
	c-2.4,4.4-8.7,4.5-11.4,3.5c-1.9-0.7-4.2-2.1-5.8-4.9c-1.8-3.1-2.1-6.8-1.9-7.4c0-0.2-0.6-7.6,4.9-11.6c0.2-0.2,2.5-2,5.5-2
	c0,0,5.7-0.7,8.8,4V0.6z"/>
<path class="st0" d="M76.8,30c0.5,0,4.6,0,6-4.3c0.8,0,5.4,0,5.5,0c0,0.2-1,4.9-4.7,7c-6,3.5-11.8,1.2-14.1-0.2
	c-1.5-1.1-3.1-2.9-4.1-5.4c-1.1-2.9-1.5-6.8,0-11.5c0.8-2.2,2.2-4,4.2-5.5c1.8-1.3,4.8-2.1,7.3-2c3.1,0.3,7,1.1,9.6,5.2
	c1.5,2.5,2.3,5.6,2,9.7l-18.5,0C70.1,22.9,70.4,30,76.8,30z M70.2,18.8h12.8c-0.3-2.9-2-6.1-5.9-6.3C74.3,12.4,70.8,13.9,70.2,18.8z
	"/>
<path class="st1" d="M76.8,30c0.5,0,4.6,0,6-4.3c0.8,0,5.4,0,5.5,0c0,0.2-1,4.9-4.7,7c-6,3.5-11.8,1.2-14.1-0.2
	c-1.5-1.1-3.1-2.9-4.1-5.4c-1.1-2.9-1.5-6.8,0-11.5c0.8-2.2,2.2-4,4.2-5.5c1.8-1.3,4.8-2.1,7.3-2c3.1,0.3,7,1.1,9.6,5.2
	c1.5,2.5,2.3,5.6,2,9.7l-18.5,0C70.1,22.9,70.4,30,76.8,30z M70.2,18.8h12.8c-0.3-2.9-2-6.1-5.9-6.3C74.3,12.4,70.8,13.9,70.2,18.8z
	"/>
<path class="st0" d="M107.8,26.5c-0.8,1.4-2.4,3-4.9,3.4c-1,0.2-4.5,0.7-5.6-2.2c-0.4-1.3-0.2-3.5,3.2-4.3c1.7-0.4,3.2-0.5,4.9-0.8
	c1.2-0.2,2.3-0.7,3.2-1.3C108.6,22,108.7,25,107.8,26.5z M92.5,17c1.8,0,3.6,0,5.5,0c0.1-1.3,0.4-4.2,5.2-4.5c4.2,0,5.1,2,5.3,2.7
	c0.3,1.7,0.1,2.9-2.2,3.5c-3,0.7-6,0.5-9.1,1.4c-2.5,0.8-5.3,2.3-5.6,6.2c0,5.3,3.1,6.7,4.5,7.5c3.5,1.2,6.7,0.6,8.6-0.3
	c1.4-0.6,3-1.8,4.2-3.4c0.1,0.8,0,1.8,0.7,2.6c1,1.2,1.9,1.2,2.9,1.2l3.7,0l0-4.4c-0.9,0-1.9,0.2-2-0.9l-0.1-8.3c0-0.3,0-2,0-3.4
	c0-1.8-0.4-3.7-1.9-5.6c-1.5-1.6-3.6-2.9-7.1-3.1c-3-0.1-6.3-0.1-9.2,2.3C94.6,11.6,92.4,13.7,92.5,17z"/>
<path class="st1" d="M107.8,26.5c-0.8,1.4-2.4,3-4.9,3.4c-1,0.2-4.5,0.7-5.6-2.2c-0.4-1.3-0.2-3.5,3.2-4.3c1.7-0.4,3.2-0.5,4.9-0.8
	c1.2-0.2,2.3-0.7,3.2-1.3C108.6,22,108.7,25,107.8,26.5z M92.5,17c1.8,0,3.6,0,5.5,0c0.1-1.3,0.4-4.2,5.2-4.5c4.2,0,5.1,2,5.3,2.7
	c0.3,1.7,0.1,2.9-2.2,3.5c-3,0.7-6,0.5-9.1,1.4c-2.5,0.8-5.3,2.3-5.6,6.2c0,5.3,3.1,6.7,4.5,7.5c3.5,1.2,6.7,0.6,8.6-0.3
	c1.4-0.6,3-1.8,4.2-3.4c0.1,0.8,0,1.8,0.7,2.6c1,1.2,1.9,1.2,2.9,1.2l3.7,0l0-4.4c-0.9,0-1.9,0.2-2-0.9l-0.1-8.3c0-0.3,0-2,0-3.4
	c0-1.8-0.4-3.7-1.9-5.6c-1.5-1.6-3.6-2.9-7.1-3.1c-3-0.1-6.3-0.1-9.2,2.3C94.6,11.6,92.4,13.7,92.5,17z"/>
<path class="st0" d="M119.8,8.8h5.4V14c0.4,0.1,1.9-6,9.9-5.3l0,5.2c-3.7-0.1-7.7-0.5-9.5,4.8c-0.2,0.6-0.2,1-0.2,1.5
	c0,0.5-0.1,1-0.1,1.6c0,4.1,0,8.1,0,12.2h-5.5V8.8z"/>
<path class="st1" d="M119.8,8.8h5.4V14c0.4,0.1,1.9-6,9.9-5.3l0,5.2c-3.7-0.1-7.7-0.5-9.5,4.8c-0.2,0.6-0.2,1-0.2,1.5
	c0,0.5-0.1,1-0.1,1.6c0,4.1,0,8.1,0,12.2h-5.5V8.8z"/>
<path class="st0" d="M141.1,2.7h5.6v6.1l5.2,0l0,4.4l-5.2,0c0,4.6,0,9.2,0,13.7c0,1.5,0.4,2.5,2,2.5l3.4,0l0,4.6l-4.4,0
	c-3.8-0.2-6.3-3.1-6.5-7l0-13.7l-3.8,0l-0.1-4.3l3.8,0V2.7z"/>
<path class="st1" d="M141.1,2.7h5.6v6.1l5.2,0l0,4.4l-5.2,0c0,4.6,0,9.2,0,13.7c0,1.5,0.4,2.5,2,2.5l3.4,0l0,4.6l-4.4,0
	c-3.8-0.2-6.3-3.1-6.5-7l0-13.7l-3.8,0l-0.1-4.3l3.8,0V2.7z"/>
<path class="st0" d="M155.3,1.3h5.6v11.3c1-1.7,3.2-4.7,8.1-4.5c1.8,0,6.2,0.1,7.9,4.6c0.6,1.7,0.7,3.4,0.7,5.2l0,16.1l-5.5,0
	l0.1-16.1c0.1-2.2-0.9-5-4.3-5.1c-2.2-0.1-6.5,0.9-6.9,7.1v14.2h-5.6V1.3z"/>
<path class="st1" d="M155.3,1.3h5.6v11.3c1-1.7,3.2-4.7,8.1-4.5c1.8,0,6.2,0.1,7.9,4.6c0.6,1.7,0.7,3.4,0.7,5.2l0,16.1l-5.5,0
	l0.1-16.1c0.1-2.2-0.9-5-4.3-5.1c-2.2-0.1-6.5,0.9-6.9,7.1v14.2h-5.6V1.3z"/>
<path class="st0" d="M44.2,30c0.5,0,4.6,0,6-4.3c0.8,0,5.4,0,5.5,0c0,0.2-1,4.9-4.7,7c-6,3.5-11.8,1.2-14.1-0.2
	c-1.5-1.1-3.1-2.9-4.1-5.4c-1.1-2.9-1.5-6.8,0-11.5c0.8-2.2,2.2-4,4.2-5.5c1.8-1.3,4.8-2.1,7.3-2c3.1,0.3,7,1.1,9.6,5.2
	c1.5,2.5,2.3,5.6,2,9.6l-18.5,0C37.5,22.9,37.8,30,44.2,30z M37.6,18.8h12.8c-0.3-2.9-2-6.1-5.9-6.3C41.7,12.4,38.3,13.9,37.6,18.8z
	"/>
<path class="st1" d="M44.2,30c0.5,0,4.6,0,6-4.3c0.8,0,5.4,0,5.5,0c0,0.2-1,4.9-4.7,7c-6,3.5-11.8,1.2-14.1-0.2
	c-1.5-1.1-3.1-2.9-4.1-5.4c-1.1-2.9-1.5-6.8,0-11.5c0.8-2.2,2.2-4,4.2-5.5c1.8-1.3,4.8-2.1,7.3-2c3.1,0.3,7,1.1,9.6,5.2
	c1.5,2.5,2.3,5.6,2,9.6l-18.5,0C37.5,22.9,37.8,30,44.2,30z M37.6,18.8h12.8c-0.3-2.9-2-6.1-5.9-6.3C41.7,12.4,38.3,13.9,37.6,18.8z
	"/>
</svg>
