<?xml version="1.0" encoding="utf-8"?>
<!-- Generator: Adobe Illustrator 25.2.1, SVG Export Plug-In . SVG Version: 6.00 Build 0)  -->
<!DOCTYPE svg PUBLIC "-//W3C//DTD SVG 1.1//EN" "http://www.w3.org/Graphics/SVG/1.1/DTD/svg11.dtd" [
	<!ENTITY ns_extend "http://ns.adobe.com/Extensibility/1.0/">
	<!ENTITY ns_ai "http://ns.adobe.com/AdobeIllustrator/10.0/">
	<!ENTITY ns_graphs "http://ns.adobe.com/Graphs/1.0/">
	<!ENTITY ns_vars "http://ns.adobe.com/Variables/1.0/">
	<!ENTITY ns_imrep "http://ns.adobe.com/ImageReplacement/1.0/">
	<!ENTITY ns_sfw "http://ns.adobe.com/SaveForWeb/1.0/">
	<!ENTITY ns_custom "http://ns.adobe.com/GenericCustomNamespace/1.0/">
	<!ENTITY ns_adobe_xpath "http://ns.adobe.com/XPath/1.0/">
]>
<svg version="1.1" id="Layer_1" xmlns:x="&ns_extend;" xmlns:i="&ns_ai;" xmlns:graph="&ns_graphs;"
	 xmlns="http://www.w3.org/2000/svg" xmlns:xlink="http://www.w3.org/1999/xlink" x="0px" y="0px" viewBox="0 0 68 46"
	 style="enable-background:new 0 0 68 46;" xml:space="preserve">
<style type="text/css">
	.Drop_x0020_Shadow{fill:none;}
	.Round_x0020_Corners_x0020_2_x0020_pt{fill:#FFFFFF;stroke:#231F20;stroke-miterlimit:10;}
	.Live_x0020_Reflect_x0020_X{fill:none;}
	.Bevel_x0020_Soft{fill:url(#SVGID_1_);}
	.Dusk{fill:#FFFFFF;}
	.Foliage_GS{fill:#FFDD00;}
	.Pompadour_GS{fill-rule:evenodd;clip-rule:evenodd;fill:#44ADE2;}
	.st0{fill:#999999;}
</style>
<metadata>
	<sfw  xmlns="&ns_sfw;">
		<slices></slices>
		<sliceSourceBounds  bottomLeftOrigin="true" height="45.3" width="66.9" x="0.6" y="-45.6"></sliceSourceBounds>
	</sfw>
</metadata>
<linearGradient id="SVGID_1_" gradientUnits="userSpaceOnUse" x1="0" y1="0" x2="0.7071" y2="0.7071">
	<stop  offset="0" style="stop-color:#DEDFE3"/>
	<stop  offset="0.1783" style="stop-color:#DADBDF"/>
	<stop  offset="0.3611" style="stop-color:#CECFD3"/>
	<stop  offset="0.546" style="stop-color:#B9BCBF"/>
	<stop  offset="0.7324" style="stop-color:#9CA0A2"/>
	<stop  offset="0.9181" style="stop-color:#787D7E"/>
	<stop  offset="1" style="stop-color:#656B6C"/>
</linearGradient>
<path class="st0" d="M58.1,45.4L57.7,44h0c-0.8,1.1-1.9,1.6-3.3,1.6c-1.5,0-2.7-0.5-3.6-1.5c-0.9-1-1.4-2.4-1.4-4c0-1.6,0.5-3,1.4-4
	c0.9-1.1,2.2-1.6,3.8-1.6c1.2,0,2.2,0.3,3,0.9c0.8,0.6,1.2,1.5,1.4,2.5h-1.4c-0.2-0.7-0.5-1.3-1-1.7c-0.5-0.4-1.2-0.6-2-0.6
	c-1.2,0-2.2,0.4-2.8,1.2c-0.6,0.8-0.9,1.9-0.9,3.2c0,1.3,0.3,2.4,1,3.2c0.7,0.8,1.6,1.2,2.7,1.2c1.1,0,1.9-0.3,2.4-0.9
	c0.6-0.6,0.8-1.4,0.8-2.4v-0.3h-3.2v-1.2H59v5.7H58.1z M39.3,45.4V34.7h1.4l4.9,7.5l0.8,1.4h0v-8.8h1.3v10.7h-1.4l-4.9-7.5l-0.8-1.3
	h0v8.8H39.3z M29.6,43.2c0.7,0.8,1.6,1.2,2.9,1.2s2.2-0.4,2.9-1.2c0.7-0.8,1-1.9,1-3.2c0-1.3-0.3-2.4-1-3.2
	c-0.7-0.8-1.6-1.2-2.9-1.2s-2.2,0.4-2.9,1.2c-0.7,0.8-1,1.9-1,3.2C28.6,41.3,28.9,42.4,29.6,43.2z M36.3,44.1
	c-1,1.1-2.2,1.6-3.8,1.6s-2.9-0.5-3.8-1.6c-1-1.1-1.4-2.4-1.4-4c0-1.6,0.5-3,1.4-4c1-1.1,2.2-1.6,3.8-1.6s2.9,0.5,3.8,1.6
	c1,1.1,1.4,2.4,1.4,4C37.7,41.7,37.2,43,36.3,44.1z M20,45.4V34.7h1.4v9.5h5.6v1.2H20z M10.6,45.4V34.7h7.6v1.2H12v3.4h5.7v1.1H12
	v3.8h6.4v1.2H10.6z M2.3,39.3h3c0.7,0,1.2-0.2,1.5-0.5c0.4-0.3,0.6-0.7,0.6-1.3c0-0.5-0.2-0.9-0.5-1.2c-0.3-0.3-0.8-0.4-1.4-0.4H2.3
	V39.3z M2.3,44.2h3.4c0.7,0,1.3-0.2,1.7-0.5c0.3-0.3,0.5-0.8,0.5-1.2c0-0.7-0.2-1.1-0.6-1.5c-0.4-0.3-1-0.5-1.6-0.5H2.3V44.2z
	 M1,45.4V34.7h4.5c1.1,0,2,0.3,2.6,0.9c0.5,0.5,0.7,1.1,0.7,1.8c0,1.1-0.6,1.9-1.7,2.3v0c0.6,0.2,1.2,0.4,1.6,0.9
	c0.4,0.4,0.6,1,0.6,1.7c0,0.8-0.3,1.5-0.8,2.1c-0.6,0.7-1.5,1-2.7,1H1z M48.4,28.3V17.5H56v1.2h-6.2v3.4h5.7v1.1h-5.7V27h6.4v1.2
	H48.4z M38.6,18.7v-1.2h8.5v1.2h-3.6v9.5h-1.4v-9.5H38.6z M34.3,20.3L33,23.9h3.5l-1.2-3.6l-0.5-1.5h0
	C34.6,19.4,34.4,19.9,34.3,20.3z M30.1,28.3L34,17.5h1.5l4,10.7H38L36.9,25h-4.3l-1.2,3.3H30.1z M21.4,28.3V17.5H29v1.2h-6.2v3.4
	h5.7v1.1h-5.7V27h6.4v1.2H21.4z M13,18.7v3.9h3.2c0.7,0,1.3-0.2,1.7-0.5c0.4-0.3,0.6-0.8,0.6-1.4c0-0.7-0.2-1.2-0.5-1.5
	s-0.9-0.5-1.7-0.5H13z M11.6,28.3V17.5h5c0.9,0,1.7,0.3,2.3,0.8c0.6,0.5,0.9,1.3,0.9,2.1c0,1.4-0.6,2.3-1.9,2.7v0
	c0.5,0.2,0.9,0.5,1.1,0.9c0.2,0.4,0.4,1,0.4,1.8c0.1,1.4,0.3,2.1,0.5,2.3v0.1h-1.5c-0.1-0.1-0.2-0.3-0.2-0.6c0-0.3-0.1-0.9-0.2-1.8
	c0-0.8-0.2-1.3-0.6-1.7c-0.3-0.3-0.9-0.5-1.6-0.5h-3v4.5H11.6z M5.6,28.5c-1.5,0-2.7-0.5-3.6-1.6c-0.9-1-1.4-2.4-1.4-4
	c0-1.6,0.5-3,1.4-4c0.9-1.1,2.2-1.6,3.7-1.6c1.2,0,2.2,0.3,3,0.9c0.8,0.6,1.2,1.5,1.4,2.5H8.6c-0.1-0.7-0.5-1.2-1-1.6
	c-0.5-0.4-1.2-0.6-2-0.6c-1.2,0-2.1,0.4-2.7,1.2c-0.7,0.8-1,1.9-1,3.2c0,1.3,0.3,2.4,1,3.2c0.7,0.8,1.6,1.2,2.7,1.2
	c1,0,1.7-0.3,2.2-0.8c0.5-0.6,0.8-1.3,0.9-2.1h1.3c0,0.5-0.1,1.1-0.4,1.6c-0.2,0.6-0.5,1-0.9,1.4C8,28.1,7,28.5,5.6,28.5z
	 M59.7,11.1V0.4h7.6v1.2H61v3.4h5.7v1.1H61v3.8h6.4v1.2H59.7z M51.2,1.5v3.9h3.2c0.7,0,1.3-0.2,1.7-0.5c0.4-0.3,0.6-0.8,0.6-1.4
	c0-0.7-0.2-1.2-0.5-1.5c-0.3-0.3-0.9-0.5-1.7-0.5H51.2z M49.9,11.1V0.4h5c0.9,0,1.7,0.3,2.3,0.8C57.7,1.7,58,2.4,58,3.3
	c0,1.4-0.6,2.3-1.9,2.7v0c0.5,0.2,0.9,0.5,1.1,0.9c0.2,0.4,0.4,1,0.4,1.8c0.1,1.4,0.3,2.1,0.5,2.3v0.1h-1.5
	c-0.1-0.1-0.2-0.3-0.2-0.6c0-0.3-0.1-0.9-0.2-1.8c-0.1-0.8-0.2-1.3-0.6-1.7c-0.3-0.3-0.9-0.5-1.6-0.5h-3v4.5H49.9z M43.9,11.3
	c-1.3,0-2.2-0.3-3-0.9c-0.7-0.6-1.1-1.5-1.1-2.7V0.4h1.4v7.1c0,1.7,0.9,2.6,2.8,2.6c1.8,0,2.7-0.9,2.7-2.6V0.4H48v7.3
	c0,1.2-0.4,2.1-1.1,2.7C46.1,11,45.1,11.3,43.9,11.3z M30.2,1.5V0.4h8.5v1.2h-3.6v9.5h-1.4V1.5H30.2z M22.6,1.5v3.9h3.2
	c0.7,0,1.3-0.2,1.7-0.5C27.8,4.6,28,4.1,28,3.5c0-0.7-0.2-1.2-0.5-1.5s-0.9-0.5-1.7-0.5H22.6z M21.2,11.1V0.4h5
	c0.9,0,1.7,0.3,2.3,0.8c0.6,0.5,0.9,1.3,0.9,2.1c0,1.4-0.6,2.3-1.9,2.7v0c0.5,0.2,0.9,0.5,1.1,0.9c0.2,0.4,0.4,1,0.4,1.8
	c0.1,1.4,0.3,2.1,0.5,2.3v0.1h-1.5C28,11,28,10.8,27.9,10.5c0-0.3-0.1-0.9-0.2-1.8c-0.1-0.8-0.2-1.3-0.6-1.7
	c-0.3-0.3-0.9-0.5-1.6-0.5h-3v4.5H21.2z M15.3,11.3c-1.3,0-2.2-0.3-3-0.9c-0.7-0.6-1.1-1.5-1.1-2.7V0.4h1.4v7.1
	c0,1.7,0.9,2.6,2.8,2.6c1.8,0,2.7-0.9,2.7-2.6V0.4h1.4v7.3c0,1.2-0.4,2.1-1.1,2.7C17.5,11,16.5,11.3,15.3,11.3z M1,11.1V0.4h1.4
	l4.9,7.5l0.8,1.4h0V0.4h1.3v10.7H8L3.1,3.6L2.3,2.3h0v8.8H1z"/>
</svg>
